<svg width="120" height="120" viewBox="0 0 120 120" fill="none" xmlns="http://www.w3.org/2000/svg">
<path d="M110.974 49.4441C106.726 56.8778 96.6373 59.5325 89.2036 55.2849C86.5486 53.6919 84.9557 52.099 83.3628 49.4441C81.239 46.2582 75.9291 46.2582 73.8053 49.4441C69.5574 56.8778 59.469 59.5325 52.0353 55.2849C49.3803 53.6919 47.7874 52.099 46.1945 49.4441C44.0707 46.2582 38.7608 46.2582 36.6369 49.4441C32.3891 56.8778 22.3007 59.5325 14.8669 55.2849C12.212 53.6919 10.6191 52.099 9.02614 49.4441L0 54.7537C4.77876 62.7183 13.2743 68.028 22.8318 68.028C29.7344 68.028 36.6372 64.8421 41.416 60.0634C51.5044 70.1518 67.9647 70.6829 78.0532 60.5943C78.0532 60.5943 78.0532 60.5943 78.584 60.0634C89.2036 70.1518 105.664 70.1518 116.283 59.5325C117.876 57.9396 118.938 56.3466 120 54.7537L110.974 49.4441Z" fill="#FFB600"/>
<path d="M110.974 86.6125C108.319 91.3913 103.009 94.5771 97.1682 94.5771C91.3274 94.5771 86.0178 91.3913 83.3628 86.6125C81.239 83.4267 75.9291 83.4267 73.8053 86.6125C69.5574 94.0462 59.469 96.7009 52.0353 92.4533C49.3803 90.8604 47.7874 89.2675 46.1945 86.6125C44.0707 83.4267 38.7608 83.4267 36.6369 86.6125C32.3891 94.0462 22.3007 96.7009 14.8669 92.4533C12.212 90.8604 10.6191 89.2675 9.02614 86.6125L0 91.9224C7.43372 104.666 23.8938 108.383 36.6372 100.949C38.2301 99.887 40.3539 98.8253 41.416 97.2323C51.5044 107.321 67.9647 107.852 78.0532 97.7632C78.0532 97.7632 78.0532 97.7632 78.584 97.2323C89.2036 107.321 105.664 107.321 116.283 96.7014C117.876 95.1085 118.938 93.5156 120 91.9227L110.974 86.6125Z" fill="#FFB600"/>
<path d="M60.0001 36.1701C62.9325 36.1701 65.3097 33.7929 65.3097 30.8604C65.3097 27.928 62.9325 25.5508 60.0001 25.5508C57.0676 25.5508 54.6904 27.928 54.6904 30.8604C54.6904 33.7929 57.0676 36.1701 60.0001 36.1701Z" fill="#FFB600"/>
<path d="M97.1682 46.7892C100.101 46.7892 102.478 44.412 102.478 41.4796C102.478 38.5471 100.101 36.1699 97.1682 36.1699C94.2357 36.1699 91.8585 38.5471 91.8585 41.4796C91.8585 44.412 94.2357 46.7892 97.1682 46.7892Z" fill="#FFB600"/>
<path d="M91.8586 25.5505C94.791 25.5505 97.1683 23.1732 97.1683 20.2408C97.1683 17.3084 94.791 14.9312 91.8586 14.9312C88.9262 14.9312 86.549 17.3084 86.549 20.2408C86.549 23.1732 88.9262 25.5505 91.8586 25.5505Z" fill="#FFB600"/>
</svg>
