<svg width="512" height="512" viewBox="0 0 512 512" fill="none" xmlns="http://www.w3.org/2000/svg">
<path d="M412.9 97.1C371 55.1 315.2 32 255.9 32C133.5 32 33.9 131.6 33.9 254C33.9 293.1 44.1 331.3 63.5 365L32 480L149.7 449.1C182.1 466.8 218.6 476.1 255.8 476.1H255.9C378.2 476.1 480 376.5 480 254.1C480 194.8 454.8 139.1 412.9 97.1ZM255.9 438.7C222.7 438.7 190.2 429.8 161.9 413L155.2 409L85.4 427.3L104 359.2L99.6 352.2C81.1 322.8 71.4 288.9 71.4 254C71.4 152.3 154.2 69.5 256 69.5C305.3 69.5 351.6 88.7 386.4 123.6C421.2 158.5 442.6 204.8 442.5 254.1C442.5 355.9 357.6 438.7 255.9 438.7ZM357.1 300.5C351.6 297.7 324.3 284.3 319.2 282.5C314.1 280.6 310.4 279.7 306.7 285.3C303 290.9 292.4 303.3 289.1 307.1C285.9 310.8 282.6 311.3 277.1 308.5C244.5 292.2 223.1 279.4 201.6 242.5C195.9 232.7 207.3 233.4 217.9 212.2C219.7 208.5 218.8 205.3 217.4 202.5C216 199.7 204.9 172.4 200.3 161.3C195.8 150.5 191.2 152 187.8 151.8C184.6 151.6 180.9 151.6 177.2 151.6C173.5 151.6 167.5 153 162.4 158.5C157.3 164.1 143 177.5 143 204.8C143 232.1 162.9 258.5 165.6 262.2C168.4 265.9 204.7 321.9 260.4 346C295.6 361.2 309.4 362.5 327 359.9C337.7 358.3 359.8 346.5 364.4 333.5C369 320.5 369 309.4 367.6 307.1C366.3 304.6 362.6 303.2 357.1 300.5Z" fill="#FFB600"/>
</svg>
